<?xml version="1.0" encoding="iso-8859-1"?>
<!-- Uploaded to: SVG Repo, www.svgrepo.com, Generator: SVG Repo Mixer Tools -->
<svg fill="#000000" height="800px" width="800px" version="1.1" id="Layer_1" xmlns="http://www.w3.org/2000/svg" xmlns:xlink="http://www.w3.org/1999/xlink" 
	 viewBox="0 0 511.999 511.999" xml:space="preserve">
<g>
	<g>
		<path d="M508.813,84.963l-16.596-34.955c-5.459-11.494-18.734-24.768-30.223-30.221L427.043,3.192
			C422.644,1.104,417.482,0,412.115,0c-10.207,0-20.18,3.881-26.68,10.381L140.683,255.133c-11.11,11.11-11.11,29.187,0,40.297
			l10.81,10.81c-0.423,3.335-1.821,7.708-5.789,11.675L8.183,455.437c-10.901,10.902-10.901,28.639,0,39.541l8.847,8.846
			c5.451,5.45,12.61,8.175,19.769,8.175s14.319-2.725,19.77-8.175L194.091,366.3c3.97-3.971,8.342-5.361,11.68-5.783l10.806,10.804
			c5.367,5.367,12.522,8.322,20.147,8.322c7.625,0,14.782-2.955,20.147-8.322l244.755-244.753
			C511.868,116.325,515.026,98.05,508.813,84.963z M371.767,49.565c3.41,18.945,3.649,38.637-12.535,54.822
			c-16.201,16.204-36.602,16.212-58.236,15.95L371.767,49.565z M43.811,491.066c-3.867,3.867-10.157,3.867-14.024,0l-8.846-8.846
			c-3.867-3.867-3.867-10.157,0-14.024l35.867-35.866l22.87,22.872L43.811,491.066z M92.434,442.442l-22.87-22.872l45.076-45.075
			l22.87,22.87L92.434,442.442z M181.332,353.543l-31.066,31.066l-22.87-22.87l31.066-31.065c3.298-3.298,5.649-6.757,7.325-10.141
			l25.685,25.685C188.089,347.894,184.63,350.246,181.332,353.543z M332.028,270.652c2.436-9.798,7.309-19.527,17.073-29.241
			c10.244-10.19,19.832-14.846,29.783-17.614L332.028,270.652z M488.868,113.813l-87.141,87.14c-2.865,0.547-5.734,1.05-8.531,1.521
			c-18.067,3.039-36.747,6.182-56.818,26.146c-21.231,21.123-24.332,43.095-24.756,62.439l-67.507,67.506
			c-1.959,1.959-4.585,3.038-7.391,3.038c-2.807,0-5.432-1.08-7.391-3.038l-75.894-75.894c-4.075-4.075-4.075-10.706,0-14.781
			l129.356-129.354c5.338-0.292,11.003-0.247,16.97-0.174c23.619,0.289,50.394,0.612,72.226-21.219
			c26.205-26.206,20.555-58.303,15.043-82.846l11.16-11.16c3.096-3.096,8.559-5.096,13.921-5.096c2.706,0,5.192,0.5,7.19,1.449
			l34.953,16.596c7.823,3.713,17.946,13.835,21.663,21.662l16.594,34.952C495.458,98.898,493.72,108.963,488.868,113.813z"/>
	</g>
</g>
</svg>