<?xml version="1.0" ?>
<!-- Uploaded to: SVG Repo, www.svgrepo.com, Generator: SVG Repo Mixer Tools -->
<svg width="800px" height="800px" viewBox="0 0 512 512" id="Layer_1" version="1.1" xml:space="preserve" xmlns="http://www.w3.org/2000/svg" xmlns:xlink="http://www.w3.org/1999/xlink">
<style type="text/css">
	.st0{display:none;}
	.st1{display:inline;}
	.st2{fill:none;stroke:#EF2800;stroke-miterlimit:10;}
	.st3{fill:none;stroke:#000000;stroke-width:15;stroke-linejoin:round;stroke-miterlimit:10;}
	.st4{fill:#FFFFFF;stroke:#000000;stroke-width:15;stroke-linejoin:round;stroke-miterlimit:10;}
	.st5{fill:#FFFFFF;stroke:#000000;stroke-width:10;stroke-linecap:round;stroke-linejoin:round;stroke-miterlimit:10;}
	.st6{fill:#FFFFFF;stroke:#000000;stroke-width:15;stroke-linecap:round;stroke-linejoin:round;stroke-miterlimit:10;}
	.st7{fill:none;stroke:#000000;stroke-width:15;stroke-linecap:round;stroke-linejoin:round;stroke-miterlimit:10;}
	.st8{fill:none;stroke:#000000;stroke-width:10;stroke-linecap:round;stroke-linejoin:round;stroke-miterlimit:10;}
	.st9{fill:#FFFFFF;stroke:#000000;stroke-width:8;stroke-linecap:round;stroke-linejoin:round;stroke-miterlimit:10;}
	.st10{fill:#FFFFFF;stroke:#000000;stroke-width:10;stroke-linejoin:round;stroke-miterlimit:10;}
	.st11{fill:#FFFFFF;stroke:#000000;stroke-width:12;stroke-linecap:round;stroke-linejoin:round;stroke-miterlimit:10;}
	.st12{fill:none;stroke:#000000;stroke-width:8;stroke-linecap:round;stroke-linejoin:round;stroke-miterlimit:10;}
	.st13{fill:none;stroke:#000000;stroke-width:7;stroke-linecap:round;stroke-linejoin:round;stroke-miterlimit:10;}
	.st14{fill:none;stroke:#000000;stroke-width:12;stroke-linejoin:round;stroke-miterlimit:10;}
	.st15{fill:#FFFFFF;stroke:#000000;stroke-width:10;stroke-miterlimit:10;}
	.st16{fill:none;stroke:#000000;stroke-width:12;stroke-linecap:round;stroke-linejoin:round;stroke-miterlimit:10;}
	.st17{fill:none;stroke:#000000;stroke-width:10;stroke-linejoin:round;stroke-miterlimit:10;}
	.st18{fill:#FFFFFF;stroke:#000000;stroke-width:15;stroke-miterlimit:10;}
	.st19{fill:#FFFFFF;stroke:#000000;stroke-width:15;stroke-linecap:round;stroke-miterlimit:10;}
</style>
<g class="st0">
<g class="st1">
<rect class="st2" height="432" width="432" x="40" y="40"/>
<circle class="st2" cx="256" cy="256" r="216"/>
</g>
<g class="st1">
<rect class="st2" height="304.7" width="304.7" x="103.7" y="103.7"/>
<circle class="st2" cx="256" cy="256" r="152.3"/>
</g>
<g class="st1">
<line class="st2" x1="512" x2="0" y1="256" y2="256"/>
<line class="st2" x1="256" x2="256" y1="512" y2="0"/>
</g>
<g class="st1">
<line class="st2" x1="512" x2="0" y1="0" y2="512"/>
<line class="st2" x1="512" x2="0" y1="512" y2="0"/>
</g>
<g class="st1">
<line class="st2" x1="148.5" x2="148.5" y1="511.9" y2="0.1"/>
<line class="st2" x1="363.5" x2="363.5" y1="0.1" y2="511.9"/>
</g>
<g class="st1">
<line class="st2" x1="0.1" x2="511.9" y1="148.5" y2="148.5"/>
<line class="st2" x1="511.9" x2="0.1" y1="363.5" y2="363.5"/>
</g>
</g>
<g>
<path d="M448.6,149.8C448.6,149.8,448.6,149.8,448.6,149.8c-3.1,0-6,0.6-8.6,1.7l0-9.4c0-6.1-2.4-11.9-6.7-16.2   c-4.3-4.3-10.1-6.7-16.2-6.7l-3.9,0c0,0,0,0,0,0c-2.7,0-5.3,0.5-7.7,1.3l0-14.7c0-6.1-2.4-11.9-6.7-16.2   c-4.3-4.3-10.1-6.7-16.2-6.7l-3.9,0c0,0,0,0,0,0c-6.1,0-11.9,2.4-16.2,6.7c-4.3,4.3-6.7,10.1-6.7,16.2l0,10.7   c-2.4-0.9-5-1.4-7.7-1.4l-3.9,0c0,0,0,0,0,0c-12.7,0-22.9,10.3-23,22.9l-0.1,124.7c0,3-1.6,5.7-4.4,7c-2.7,1.3-5.8,1-8.2-0.9   l-8.4-6.7c-10.5-8.4-25.5-7.6-35,1.9c-10.2,10.2-10.2,26.9,0,37.1l50,50.1c1.5,1.5,2.3,3.4,2.3,5.5l0,36.9c0,0,0,0,0,0s0,0,0,0   l0,12.8c0,6.1,2.4,11.9,6.7,16.2c4.3,4.3,10.1,6.7,16.2,6.7l97.5,0c0,0,0,0,0,0c12.6,0,22.9-10.3,23-22.9l0-12.8c0,0,0,0,0,0   c0,0,0,0,0,0l0-54.4c0-0.2,0-0.3,0-0.5l1.7-27.3c0-0.3,0.1-0.6,0.1-0.9l8.5-46.3c0.2-1.4,0.4-2.7,0.4-4.1l0-87.1   C471.6,160.1,461.3,149.8,448.6,149.8z M437.8,414C437.8,414,437.8,414,437.8,414l-97.5,0c-2.1,0-4-0.8-5.5-2.3   c-1.5-1.5-2.3-3.4-2.3-5.5l0-5.2l14.2,0c0,0,0,0,0,0c4.2,0,7.6-3.4,7.6-7.6c0-4.2-3.4-7.6-7.6-7.6l-14.2,0l0-29.3   c0-6.1-2.4-11.9-6.7-16.2l-50-50.1c-4.3-4.3-4.3-11.3,0-15.6c4-4,10.3-4.3,14.7-0.8l8.4,6.7c6.9,5.6,16.3,6.7,24.3,2.8   c8-3.8,13-11.8,13-20.7l0.1-124.7c0-4.3,3.5-7.7,7.7-7.7c0,0,0,0,0,0l3.9,0c2.1,0,4,0.8,5.5,2.3c1.4,1.4,2.2,3.4,2.3,5.4l0,105.2v0   l0,0v0c0,3.7,2.6,6.7,6.1,7.5c0.5,0.1,1,0.2,1.5,0.2c0,0,0,0,0,0c3.4,0,6.2-2.2,7.2-5.2c0.2-0.5,0.3-1.1,0.4-1.6c0-0.2,0-0.3,0-0.5   c0-0.1,0-0.2,0-0.3l0.1-105.1c0,0,0,0,0-0.1l0-32.2c0-2.1,0.8-4,2.3-5.5c1.5-1.5,3.4-2.3,5.5-2.3c0,0,0,0,0,0l3.9,0   c2.1,0,4,0.8,5.5,2.3c1.5,1.5,2.3,3.4,2.3,5.5l0,36.4c0,0,0,0,0,0l0,101c0,4.2,3.4,7.6,7.6,7.6c0,0,0,0,0,0c4.2,0,7.6-3.4,7.6-7.6   l0-101c0-4.3,3.5-7.7,7.7-7.7c0,0,0,0,0,0l3.9,0c2.1,0,4,0.8,5.5,2.3c1.5,1.5,2.3,3.4,2.3,5.5l0,101c0,4.2,3.4,7.6,7.6,7.6   c0,0,0,0,0,0c0.2,0,0.3,0,0.4,0c0.2,0,0.3,0,0.5,0c0,0,0,0,0,0c4.2,0,7.6-3.4,7.6-7.6l0-70.3c0-4.3,3.5-7.7,7.7-7.7c0,0,0,0,0,0   c4.3,0,7.7,3.5,7.7,7.7l0,87.1c0,0.5,0,0.9-0.1,1.4l-8.5,46.3c-0.2,0.9-0.3,1.8-0.3,2.7l-1.7,27.3c0,0.5,0,1,0,1.5l0,46.8l-70.4,0   c0,0,0,0,0,0c-4.2,0-7.6,3.4-7.6,7.6c0,4.2,3.4,7.6,7.6,7.6l70.4,0l0,5.2C445.6,410.5,442.1,414,437.8,414z"/>
<path d="M40.4,172.8l0,87.1c0,1.4,0.1,2.8,0.4,4.1l8.5,46.3c0.1,0.3,0.1,0.6,0.1,0.9l1.7,27.3c0,0.2,0,0.3,0,0.5l0,54.4   c0,0,0,0,0,0c0,0,0,0,0,0l0,12.8c0,12.7,10.3,22.9,23,22.9c0,0,0,0,0,0l97.5,0c6.1,0,11.9-2.4,16.2-6.7c4.3-4.3,6.7-10.1,6.7-16.2   l0-12.8c0,0,0,0,0,0s0,0,0,0l0-36.9c0-2.1,0.8-4,2.3-5.5l50-50.1c10.2-10.2,10.2-26.9,0-37.1c-9.5-9.5-24.5-10.3-35-1.9l-8.4,6.7   c-2.4,1.9-5.4,2.3-8.2,0.9c-2.7-1.3-4.4-3.9-4.4-7L190.8,138c0-12.7-10.3-22.9-23-22.9c0,0,0,0,0,0l-3.9,0c-2.7,0-5.3,0.5-7.7,1.4   l0-10.7c0-6.1-2.4-11.9-6.7-16.2c-4.3-4.3-10.1-6.7-16.2-6.7c0,0,0,0,0,0l-3.9,0c-6.1,0-11.9,2.4-16.2,6.7   c-4.3,4.3-6.7,10.1-6.7,16.2l0,14.7c-2.4-0.9-5-1.3-7.7-1.3c0,0,0,0,0,0l-3.9,0c-6.1,0-11.9,2.4-16.2,6.7   c-4.3,4.3-6.7,10.1-6.7,16.2l0,9.4c-2.7-1.1-5.6-1.7-8.6-1.7c0,0,0,0,0,0C50.7,149.8,40.4,160.1,40.4,172.8z M66.4,406.3l0-5.2   l70.4,0c4.2,0,7.6-3.4,7.6-7.6c0-4.2-3.4-7.6-7.6-7.6c0,0,0,0,0,0l-70.4,0l0-46.8c0-0.5,0-1,0-1.5l-1.7-27.3   c-0.1-0.9-0.2-1.8-0.3-2.7l-8.5-46.3c-0.1-0.5-0.1-0.9-0.1-1.4l0-87.1c0-4.3,3.5-7.7,7.7-7.7c0,0,0,0,0,0c4.3,0,7.7,3.5,7.7,7.7   l0,70.3c0,4.2,3.4,7.6,7.6,7.6c0,0,0,0,0,0c0.2,0,0.3,0,0.5,0c0.1,0,0.3,0,0.4,0c0,0,0,0,0,0c4.2,0,7.6-3.4,7.6-7.6l0-101   c0-2.1,0.8-4,2.3-5.5c1.5-1.5,3.4-2.3,5.5-2.3l3.9,0c0,0,0,0,0,0c4.3,0,7.7,3.5,7.7,7.7l0,101c0,4.2,3.4,7.6,7.6,7.6c0,0,0,0,0,0   c4.2,0,7.6-3.4,7.6-7.6l0-101c0,0,0,0,0,0l0-36.4c0-2.1,0.8-4,2.3-5.5c1.5-1.5,3.4-2.3,5.5-2.3l3.9,0c0,0,0,0,0,0   c2.1,0,4,0.8,5.5,2.3c1.5,1.5,2.3,3.4,2.3,5.5l0,32.2c0,0,0,0,0,0.1l0.1,105.1c0,0.1,0,0.2,0,0.3c0,0.2,0,0.3,0,0.5   c0.1,0.6,0.2,1.1,0.4,1.6c1,3,3.9,5.2,7.2,5.2c0,0,0,0,0,0c0.5,0,1-0.1,1.5-0.2c3.5-0.7,6.1-3.8,6.1-7.5v0l0,0v0l0-105.2   c0-2,0.8-4,2.3-5.4c1.5-1.5,3.4-2.3,5.5-2.3l3.9,0c0,0,0,0,0,0c4.3,0,7.7,3.5,7.7,7.7l0.1,124.7c0,8.9,5,16.8,13,20.7   c8,3.9,17.4,2.8,24.3-2.8l8.4-6.7c4.4-3.5,10.7-3.2,14.7,0.8c4.3,4.3,4.3,11.3,0,15.6l-50,50.1c-4.3,4.3-6.7,10.1-6.7,16.2l0,29.3   l-14.2,0c-4.2,0-7.6,3.4-7.6,7.6c0,4.2,3.4,7.6,7.6,7.6c0,0,0,0,0,0l14.2,0l0,5.2c0,2.1-0.8,4-2.3,5.5c-1.5,1.5-3.4,2.3-5.5,2.3   l-97.5,0c0,0,0,0,0,0C69.9,414,66.4,410.5,66.4,406.3z"/>
</g>
</svg>