<?xml version="1.0" encoding="iso-8859-1"?>
<!-- Uploaded to: SVG Repo, www.svgrepo.com, Generator: SVG Repo Mixer Tools -->
<svg fill="#000000" height="800px" width="800px" version="1.1" id="Capa_1" xmlns="http://www.w3.org/2000/svg" xmlns:xlink="http://www.w3.org/1999/xlink" 
	 viewBox="0 0 409.328 409.328" xml:space="preserve">
<g>
	<g id="Layer_1_3_">
		<g>
			<path d="M402.431,96.534c-8.317-7.131-20.841-6.169-27.971,2.148l-39.918,46.558c0,0-19.721,13.581-66.114,18.5
				s-65.894-3.915-82.894,36.835c-8.703,20.861-20.257,45.018-49.344,65.928l-36.578,9.21l-73.991-10.235
				c-9.198-1.282-18.207,4.306-20.938,13.479c-3.013,10.118,2.747,20.762,12.864,23.774l78.115,23.262
				c1.807,0.532,3.792,0.755,5.781,0.568l3.839-0.36l45.55-4.268L117.4,352.955l-96.12-11.079
				c-9.526-1.108-18.569,5.095-20.783,14.658c-2.379,10.271,4.02,20.525,14.291,22.904l106.946,24.763
				c5.988,1.357,12.599,0.245,17.956-3.648l2.38-1.73l64.353-46.768c36.441-27.891,66.026-72.162,80.511-117.574
				c3.042-9.539,5.315-18.569,7.021-26.782l61.472-21.845c3.594-1.272,6.856-3.599,9.281-6.905l40.805-55.622
				C411.554,115.046,410.345,103.319,402.431,96.534z"/>
			<circle cx="211.034" cy="111.004" r="52.241"/>
			<path d="M335.042,108.633c2.118,1.586,4.622,2.371,7.12,2.371c2.824,0,5.642-1.004,7.88-2.99
				c1.079-0.957,26.419-23.754,25.938-51.728c-0.488-28.318-26.991-48.496-28.119-49.341c-4.513-3.381-10.781-3.123-15,0.619
				c-1.079,0.957-26.418,23.753-25.938,51.727C307.411,87.611,333.915,107.788,335.042,108.633z"/>
		</g>
	</g>
</g>
</svg>